<svg width="14" height="12" viewBox="0 0 14 12" fill="none" xmlns="http://www.w3.org/2000/svg">
<path fill-rule="evenodd" clip-rule="evenodd" d="M13 4H7V2H13C13.6 2 14 2.4 14 3C14 3.6 13.6 4 13 4ZM3 6C1.3 6 0 4.7 0 3C0 1.3 1.3 0 3 0C4.7 0 6 1.3 6 3C6 4.7 4.7 6 3 6ZM3 2C2.4 2 2 2.4 2 3C2 3.6 2.4 4 3 4C3.6 4 4 3.6 4 3C4 2.4 3.6 2 3 2ZM1 8H7V10H1C0.4 10 0 9.6 0 9C0 8.4 0.4 8 1 8ZM11 6C12.7 6 14 7.3 14 9C14 10.7 12.7 12 11 12C9.3 12 8 10.7 8 9C8 7.3 9.3 6 11 6ZM11 10C11.6 10 12 9.6 12 9C12 8.4 11.6 8 11 8C10.4 8 10 8.4 10 9C10 9.6 10.4 10 11 10Z" fill="#5947B3"/>
</svg>
