<?xml version="1.0" encoding="utf-8"?>
<!DOCTYPE svg PUBLIC "-//W3C//DTD SVG 1.1//EN" "http://www.w3.org/Graphics/SVG/1.1/DTD/svg11.dtd">
<svg xmlns="http://www.w3.org/2000/svg">
	<g id="search">
		<path d="M16 14.8L12.88 11.68C13.84 10.4 14.4 8.88 14.4 7.2C14.4 3.2 11.2 0 7.2 0C3.2 0 0 3.2 0 
        7.2C0 11.2 3.2 14.4 7.2 14.4C8.88 14.4 10.4 13.84 11.68 12.88L14.8 16L16 14.8ZM1.52 
        7.2C1.52 4.08 4.08 1.52 7.2 1.52C10.32 1.52 12.88 4.08 12.88 7.2C12.88 10.32 10.32
        12.88 7.2 12.88C4.08 12.88 1.52 10.32 1.52 7.2Z" fill="#CCCCCC" />
	</g>
	<g id="charon">
		<path d="M0.8 0L3.5 2.51163L6.2 0L7 0.744186L3.5 4L0 0.744186L0.8 0Z" fill="#5947B3" />
	</g>
	<g id="close">
		<path d="M6 0.580645L5.41935 0L3.03226 2.3871L0.580645 0L0 0.580645L2.3871 2.96774L0 5.41935L0.580645 6L2.96774 3.6129L5.35484 6L5.93548 5.41935L3.6129 3.03226L6 0.580645Z" fill="white" />
	</g>
	<g id="list">
		<path fill-rule="evenodd" clip-rule="evenodd" d="M4 10V8H16V10H4ZM4 4H16V6H4V4ZM4 0H16V2H4V0ZM0 8H2V10H0V8ZM0 4H2V6H0V4ZM0 0H2V2H0V0Z" fill="#5947B3" />
	</g>
	<g id="check">
		<path d="M9.08257 0L3.48624 5.95122L1.00917 3.21951L0 4.29268L3.48624 8L10 1.07317L9.08257 0Z" fill="#01B957" />
	</g>
	<g id="typeBlock">
		<path d="M2 0.75H14C14.6858 0.75 15.25 1.31421 15.25 2V10C15.25 10.6858 14.6858 11.25 14 11.25H2C1.31421 11.25 0.75 10.6858 0.75 10V2C0.75 1.31421 1.31421 0.75 2 0.75Z" stroke="#333333" stroke-width="1.5" />
	</g>
	<g id="typeBlocks">
		<g clip-path="url(#clip0)">
			<rect width="16" height="12" rx="2" fill="#333333" />
			<rect x="7" width="2" height="12" fill="white" />
			<rect x="16" y="5" width="2" height="16" transform="rotate(90 16 5)" fill="white" />
		</g>
		<defs>
			<clipPath id="clip0">
				<rect width="16" height="12" fill="white" />
			</clipPath>
		</defs>
	</g>
	<g id="typeList">
		<path fill-rule="evenodd" clip-rule="evenodd" d="M4 10V8H16V10H4ZM4 4H16V6H4V4ZM4 0H16V2H4V0ZM0 8H2V10H0V8ZM0 4H2V6H0V4ZM0 0H2V2H0V0Z" fill="#333333" />
	</g>
	<g id="typeGPS">
		<path d="M5.5 14C5.5 14 0 9.90769 0 5.74359C0 2.58462 2.475 0 5.5 0C8.525 0 11 2.58462 11 5.74359C11 9.90769 5.5 14 5.5 14ZM5.5 1.79487C3.4375 1.79487 1.71875 3.58974 1.71875 5.74359C1.71875 7.89744 3.4375 9.69231 5.5 9.69231C7.5625 9.69231 9.28125 7.89744 9.28125 5.74359C9.28125 3.58974 7.5625 1.79487 5.5 1.79487Z" fill="#5947B3" />
	</g>
	<g id="star">
		<path d="M13.283 4.35379L9.45981 3.81303L7.75102 0.451731C7.44485 -0.147414 6.55775 -0.15503 6.24896 0.451731L4.54017 3.81303L0.716992 4.35379C0.0313838 4.45026 -0.243383 5.27028 0.253814 5.73994L3.0198 8.35486L2.36559 12.0487C2.24783 12.7164 2.9727 13.2166 3.5798 12.9043L6.99999 11.1602L10.4202 12.9043C11.0273 13.214 11.7521 12.7164 11.6344 12.0487L10.9802 8.35486L13.7462 5.73994C14.2434 5.27028 13.9686 4.45026 13.283 4.35379ZM9.63252 7.92834L10.2527 11.442L6.99999 9.78417L3.74728 11.442L4.36746 7.92834L1.73494 5.44037L5.37232 4.92755L6.99999 1.72872L8.62766 4.92755L12.265 5.44037L9.63252 7.92834Z" fill="white" />
	</g>
	<g id="photo">
		<g clip-path="url(#clip0)">
			<path fill-rule="evenodd" clip-rule="evenodd" d="M13 11.5H2C0.9 11.5 0 10.6239 0 9.65044V4.00442C0 2.93363 0.9 2.15487 2 2.15487H4C4 2.15487 4 2.15487 4 2.05752L4.2 1.66814C4.4 0.986726 5.2 0.5 5.9 0.5H9C9.7 0.5 10.5 0.986726 10.8 1.66814L11 2.05752C11 2.05752 11 2.05752 11 2.15487H13C14.1 2.15487 15 3.03097 15 4.00442V9.65044C15 10.6239 14.1 11.5 13 11.5ZM7.5 4.19912C5.8 4.19912 4.5 5.4646 4.5 7.11947C4.5 8.67699 5.9 10.0398 7.5 10.0398C9.1 10.0398 10.5 8.77434 10.5 7.11947C10.5 5.4646 9.2 4.19912 7.5 4.19912ZM13.7 3.61504H11.8V4.49115H13.7V3.61504ZM7.5 8.57965C6.6 8.57965 5.9 7.89823 5.9 7.02212C5.9 6.14602 6.6 5.4646 7.5 5.4646C8.4 5.4646 9.1 6.14602 9.1 7.02212C9.1 7.89823 8.4 8.57965 7.5 8.57965Z" fill="white" />
		</g>
		<defs>
			<clipPath id="clip0">
				<rect width="15" height="11" fill="white" transform="translate(0 0.5)" />
			</clipPath>
		</defs>
	</g>
	<g id="youtube">
		<path d="M14.702 2C14.6026 0.9 13.9073 0.3 12.8146 0.2C11.5232 0.1 8.64238 0 7.35099 0C4.66887 0 3.47682 0.1 2.18543 0.2C0.993377 0.3 0.397351 0.8 0.198675 1.9C0.0993377 2.6 0 3.3 0 5C0 6.5 0.0993377 7.4 0.198675 8.2C0.397351 9.3 1.09272 9.9 2.28477 10C3.57616 10 6.15894 10 7.54967 10C8.84106 10 11.6225 9.9 12.9139 9.8C14.0066 9.7 14.6026 9.1 14.8013 8.1C14.8013 8.1 15 6.9 15 4.9C14.9007 3.8 14.8013 2.7 14.702 2ZM5.86093 7V2.9L9.93377 5L5.86093 7Z" fill="white" />
	</g>
</svg>
