<?xml version="1.0" encoding="utf-8"?>
<!DOCTYPE svg PUBLIC "-//W3C//DTD SVG 1.1//EN" "http://www.w3.org/Graphics/SVG/1.1/DTD/svg11.dtd">
<svg xmlns="http://www.w3.org/2000/svg">
	<g id="search">
		<path d="M16 14.8L12.88 11.68C13.84 10.4 14.4 8.88 14.4 7.2C14.4 3.2 11.2 0 7.2 0C3.2 0 0 3.2 0 
        7.2C0 11.2 3.2 14.4 7.2 14.4C8.88 14.4 10.4 13.84 11.68 12.88L14.8 16L16 14.8ZM1.52 
        7.2C1.52 4.08 4.08 1.52 7.2 1.52C10.32 1.52 12.88 4.08 12.88 7.2C12.88 10.32 10.32
        12.88 7.2 12.88C4.08 12.88 1.52 10.32 1.52 7.2Z" fill="#CCCCCC" />
	</g>
	<g id="charon">
		<path d="M0.8 0L3.5 2.51163L6.2 0L7 0.744186L3.5 4L0 0.744186L0.8 0Z" fill="#5947B3" />
	</g>
	<g id="close">
		<path d="M6 0.580645L5.41935 0L3.03226 2.3871L0.580645 0L0 0.580645L2.3871 2.96774L0 5.41935L0.580645 6L2.96774 3.6129L5.35484 6L5.93548 5.41935L3.6129 3.03226L6 0.580645Z" fill="white" />
	</g>
	<g id="list">
		<path fill-rule="evenodd" clip-rule="evenodd" d="M4 10V8H16V10H4ZM4 4H16V6H4V4ZM4 0H16V2H4V0ZM0 8H2V10H0V8ZM0 4H2V6H0V4ZM0 0H2V2H0V0Z" fill="#5947B3" />
	</g>
	<g id="check">
		<path d="M9.08257 0L3.48624 5.95122L1.00917 3.21951L0 4.29268L3.48624 8L10 1.07317L9.08257 0Z" fill="#01B957" />
	</g>
	<g id="typeBlock">
		<path d="M2 0.75H14C14.6858 0.75 15.25 1.31421 15.25 2V10C15.25 10.6858 14.6858 11.25 14 11.25H2C1.31421 11.25 0.75 10.6858 0.75 10V2C0.75 1.31421 1.31421 0.75 2 0.75Z" fill="none" stroke-width="1.5" />
	</g>
	<g id="typeList">
		<path fill-rule="evenodd" clip-rule="evenodd" d="M4 10V8H16V10H4ZM4 4H16V6H4V4ZM4 0H16V2H4V0ZM0 8H2V10H0V8ZM0 4H2V6H0V4ZM0 0H2V2H0V0Z" />
	</g>
	<g id="full-w">
		<path fill-rule="evenodd" clip-rule="evenodd" d="M10.0486 3.22475L7.2753 6.00133L6 4.72575L8.77331 1.94917L6.82457 0H12V5.17657L10.0486 3.22475ZM3.22404 10.0508L5.17278 12H0V6.82343L1.94874 8.7726L4.7247 5.99602L6 7.2716L3.22404 10.0508Z" fill="white" />
	</g>
	<g id="photo">
		<g clip-path="url(#clip0)">
			<path fill-rule="evenodd" clip-rule="evenodd" d="M13 11.5H2C0.9 11.5 0 10.6239 0 9.65044V4.00442C0 2.93363 0.9 2.15487 2 2.15487H4C4 2.15487 4 2.15487 4 2.05752L4.2 1.66814C4.4 0.986726 5.2 0.5 5.9 0.5H9C9.7 0.5 10.5 0.986726 10.8 1.66814L11 2.05752C11 2.05752 11 2.05752 11 2.15487H13C14.1 2.15487 15 3.03097 15 4.00442V9.65044C15 10.6239 14.1 11.5 13 11.5ZM7.5 4.19912C5.8 4.19912 4.5 5.4646 4.5 7.11947C4.5 8.67699 5.9 10.0398 7.5 10.0398C9.1 10.0398 10.5 8.77434 10.5 7.11947C10.5 5.4646 9.2 4.19912 7.5 4.19912ZM13.7 3.61504H11.8V4.49115H13.7V3.61504ZM7.5 8.57965C6.6 8.57965 5.9 7.89823 5.9 7.02212C5.9 6.14602 6.6 5.4646 7.5 5.4646C8.4 5.4646 9.1 6.14602 9.1 7.02212C9.1 7.89823 8.4 8.57965 7.5 8.57965Z" fill="white" />
		</g>
		<defs>
			<clipPath id="clip0">
				<rect width="15" height="11" fill="white" transform="translate(0 0.5)" />
			</clipPath>
		</defs>
	</g>
	<g id="youtube">
		<path d="M14.702 2C14.6026 0.9 13.9073 0.3 12.8146 0.2C11.5232 0.1 8.64238 0 7.35099 0C4.66887 0 3.47682 0.1 2.18543 0.2C0.993377 0.3 0.397351 0.8 0.198675 1.9C0.0993377 2.6 0 3.3 0 5C0 6.5 0.0993377 7.4 0.198675 8.2C0.397351 9.3 1.09272 9.9 2.28477 10C3.57616 10 6.15894 10 7.54967 10C8.84106 10 11.6225 9.9 12.9139 9.8C14.0066 9.7 14.6026 9.1 14.8013 8.1C14.8013 8.1 15 6.9 15 4.9C14.9007 3.8 14.8013 2.7 14.702 2ZM5.86093 7V2.9L9.93377 5L5.86093 7Z" fill="white" />
	</g>
	<g id="mail">
		<path fill-rule="evenodd" clip-rule="evenodd" d="M1.75 0C0.783502 0 4.49654e-09 0.7835 4.49654e-09 1.75V2.48577C-0.000162957 2.49479 -0.000162567 2.50381 4.49654e-09 2.51282V10.25C4.49654e-09 11.2165 0.783501 12 1.75 12H14.25C15.2165 12 16 11.2165 16 10.25V2.51265C16.0002 2.50376 16.0002 2.49485 16 2.48594V1.75C16 0.7835 15.2165 0 14.25 0H1.75ZM14.5 2.07029V1.75C14.5 1.61193 14.3881 1.5 14.25 1.5H1.75C1.61193 1.5 1.5 1.61193 1.5 1.75V2.07029L8 5.88063L14.5 2.07029ZM1.5 3.80902V10.25C1.5 10.3881 1.61193 10.5 1.75 10.5H14.25C14.3881 10.5 14.5 10.3881 14.5 10.25V3.80902L8.37929 7.39702C8.14507 7.53432 7.85493 7.53432 7.62071 7.39702L1.5 3.80902Z" fill="#5947B3" />
	</g>
	<g id="arrowLeftPurple">
		<path fill-rule="evenodd" clip-rule="evenodd" d="M10.7803 19.0303C10.4874 19.3232 10.0126 19.3232 9.71967 19.0303L3.46967 12.7803C3.17678 12.4874 3.17678 12.0126 3.46967 11.7197L9.71967 5.46967C10.0126 5.17678 10.4874 5.17678 10.7803 5.46967C11.0732 5.76256 11.0732 6.23744 10.7803 6.53033L5.81066 11.5H20.25C20.6642 11.5 21 11.8358 21 12.25C21 12.6642 20.6642 13 20.25 13H5.81066L10.7803 17.9697C11.0732 18.2626 11.0732 18.7374 10.7803 19.0303Z" fill="#5947B3" />
	</g>
	<g id="charonRightGrey">
		<path fill-rule="evenodd" clip-rule="evenodd" d="M6.21967 3.21967C6.51256 2.92678 6.98744 2.92678 7.28033 3.21967L11.5303 7.46967C11.8232 7.76256 11.8232 8.23744 11.5303 8.53033L7.28033 12.7803C6.98744 13.0732 6.51256 13.0732 6.21967 12.7803C5.92678 12.4874 5.92678 12.0126 6.21967 11.7197L9.93934 8L6.21967 4.28033C5.92678 3.98744 5.92678 3.51256 6.21967 3.21967Z" fill="#B7B7B7" />
	</g>
	<g id="charonBottomGrey">
		<path d="M2.8 0L5.5 2.51163L8.2 0L9 0.744186L5.5 4L2 0.744186L2.8 0Z" fill="#B3B3B3" />
	</g>
	<g id="starGrey">
		<path fill-rule="evenodd" clip-rule="evenodd" d="M8.00001 0.25C8.14003 0.24991 8.27727 0.289014 8.39621 0.362887C8.51515 0.43676 8.61103 0.542452 8.67301 0.668L10.555 4.483L14.765 5.095C14.9035 5.11511 15.0336 5.17355 15.1405 5.26372C15.2475 5.35388 15.3272 5.47218 15.3704 5.60523C15.4137 5.73829 15.4189 5.8808 15.3854 6.01665C15.352 6.1525 15.2812 6.27628 15.181 6.374L12.135 9.344L12.854 13.536C12.8777 13.6739 12.8624 13.8157 12.8097 13.9454C12.757 14.0751 12.6691 14.1874 12.5559 14.2697C12.4427 14.352 12.3087 14.401 12.1691 14.4111C12.0295 14.4212 11.8899 14.3921 11.766 14.327L8.00001 12.347L4.23401 14.327C4.1102 14.392 3.97068 14.4211 3.8312 14.411C3.69173 14.4009 3.55785 14.352 3.44469 14.2699C3.33154 14.1877 3.2436 14.0755 3.19083 13.946C3.13805 13.8165 3.12252 13.6749 3.14601 13.537L3.86601 9.343L0.818012 6.374C0.717578 6.27632 0.646511 6.15247 0.612864 6.01647C0.579216 5.88047 0.584334 5.73777 0.627636 5.60453C0.670939 5.47129 0.750695 5.35284 0.857868 5.26261C0.96504 5.17238 1.09534 5.11397 1.23401 5.094L5.44401 4.483L7.32701 0.668C7.38899 0.542452 7.48488 0.43676 7.60382 0.362887C7.72276 0.289014 7.86 0.24991 8.00001 0.25ZM8.00001 2.695L6.61501 5.5C6.56123 5.6089 6.4818 5.70311 6.38356 5.77453C6.28531 5.84595 6.17119 5.89244 6.05101 5.91L2.95401 6.36L5.19401 8.544C5.28116 8.62886 5.34637 8.73365 5.384 8.84933C5.42163 8.96501 5.43056 9.0881 5.41001 9.208L4.88201 12.292L7.65101 10.836C7.75864 10.7794 7.87842 10.7499 8.00001 10.7499C8.12161 10.7499 8.24138 10.7794 8.34901 10.836L11.119 12.292L10.589 9.208C10.5685 9.0881 10.5774 8.96501 10.615 8.84933C10.6527 8.73365 10.7179 8.62886 10.805 8.544L13.045 6.361L9.94901 5.911C9.82883 5.89344 9.71471 5.84695 9.61647 5.77553C9.51822 5.70411 9.4388 5.6099 9.38501 5.501L8.00001 2.694V2.695Z" fill="#B3B3B3" />
	</g>
</svg>
